<svg width="18" height="17" viewBox="0 0 18 17" fill="none" xmlns="http://www.w3.org/2000/svg">
<path d="M13.865 16.7356C13.6968 16.7351 13.5292 16.7177 13.365 16.6836C10.2383 16.0728 7.3578 14.6405 5.05499 12.5517C2.80132 10.4583 1.23829 7.79289 0.55499 4.87806C0.474421 4.51478 0.494196 4.13804 0.612412 3.78407C0.730629 3.4301 0.943309 3.11082 1.22999 2.85695L3.22999 1.03889C3.33214 0.947651 3.45352 0.877782 3.5862 0.833843C3.71888 0.789904 3.85988 0.772883 3.99999 0.78389C4.14527 0.798205 4.28547 0.842405 4.41072 0.913382C4.53598 0.98436 4.64325 1.08039 4.72499 1.19472L7.22499 4.68445C7.31874 4.81985 7.364 4.9801 7.3541 5.14162C7.34419 5.30314 7.27966 5.45738 7.16999 5.58167L5.91499 6.99834C6.41482 8.0431 7.12266 8.98737 7.99999 9.77972C8.87164 10.6008 9.90191 11.2565 11.035 11.7111L12.59 10.5447C12.7206 10.4472 12.8795 10.3896 13.0456 10.3795C13.2118 10.3694 13.3772 10.4072 13.52 10.4881L17.295 12.7925C17.4245 12.8656 17.5349 12.9653 17.6178 13.0844C17.7007 13.2035 17.754 13.3387 17.7738 13.48C17.7935 13.6212 17.7791 13.7649 17.7317 13.9002C17.6843 14.0355 17.6051 14.1589 17.5 14.2611L15.55 16.0839C15.3285 16.2921 15.0656 16.4568 14.7764 16.5686C14.4872 16.6805 14.1775 16.7372 13.865 16.7356V16.7356ZM3.91999 1.71889L1.91999 3.53695C1.75872 3.67887 1.63933 3.858 1.57358 4.05671C1.50783 4.25543 1.49798 4.46688 1.54499 4.67028C2.18035 7.40546 3.64085 9.90831 5.74999 11.8764C7.91709 13.8416 10.6278 15.1887 13.57 15.7628C13.7927 15.8068 14.0235 15.7978 14.2416 15.7369C14.4598 15.6759 14.6585 15.5647 14.82 15.4133L16.77 13.5906L13.125 11.3664L11.455 12.6225C11.3911 12.6703 11.3157 12.7026 11.2355 12.7166C11.1554 12.7306 11.0728 12.7258 10.995 12.7028C9.60834 12.2203 8.35172 11.4543 7.31499 10.4597C6.24267 9.51396 5.4103 8.35173 4.87999 7.05972C4.85755 6.98151 4.85681 6.89915 4.87783 6.82059C4.89884 6.74202 4.94091 6.66988 4.99999 6.61111L6.34999 5.08584L3.91999 1.71889Z" fill="black"/>
</svg>
