<svg width="50" height="51" viewBox="0 0 50 51" fill="none" xmlns="http://www.w3.org/2000/svg">
<g clip-path="url(#clip0_650_134)">
<path fill-rule="evenodd" clip-rule="evenodd" d="M14.6932 0.65C17.3591 0.527273 18.2091 0.5 25 0.5C31.7909 0.5 32.6409 0.529545 35.3045 0.65C37.9682 0.770455 39.7864 1.19545 41.3773 1.81136C43.0432 2.44091 44.5545 3.425 45.8045 4.69773C47.0773 5.94545 48.0591 7.45455 48.6864 9.12273C49.3045 10.7136 49.7273 12.5318 49.85 15.1909C49.9727 17.8614 50 18.7114 50 25.5C50 32.2909 49.9705 33.1409 49.85 35.8068C49.7295 38.4659 49.3045 40.2841 48.6864 41.875C48.0591 43.5434 47.0756 45.055 45.8045 46.3045C44.5545 47.5773 43.0432 48.5591 41.3773 49.1864C39.7864 49.8045 37.9682 50.2273 35.3091 50.35C32.6409 50.4727 31.7909 50.5 25 50.5C18.2091 50.5 17.3591 50.4705 14.6932 50.35C12.0341 50.2295 10.2159 49.8045 8.625 49.1864C6.95664 48.559 5.44505 47.5756 4.19545 46.3045C2.92359 45.0561 1.93935 43.5452 1.31136 41.8773C0.695455 40.2864 0.272727 38.4682 0.15 35.8091C0.0272727 33.1386 0 32.2886 0 25.5C0 18.7091 0.0295454 17.8591 0.15 15.1955C0.270455 12.5318 0.695455 10.7136 1.31136 9.12273C1.94028 7.45473 2.92527 5.94389 4.19773 4.69545C5.44555 3.42387 6.95562 2.43964 8.62273 1.81136C10.2136 1.19545 12.0318 0.772727 14.6909 0.65H14.6932ZM35.1023 5.15C32.4659 5.02955 31.675 5.00455 25 5.00455C18.325 5.00455 17.5341 5.02955 14.8977 5.15C12.4591 5.26136 11.1364 5.66818 10.2545 6.01136C9.08864 6.46591 8.25455 7.00455 7.37955 7.87955C6.5501 8.68648 5.91177 9.66882 5.51136 10.7545C5.16818 11.6364 4.76136 12.9591 4.65 15.3977C4.52955 18.0341 4.50455 18.825 4.50455 25.5C4.50455 32.175 4.52955 32.9659 4.65 35.6023C4.76136 38.0409 5.16818 39.3636 5.51136 40.2455C5.91136 41.3295 6.55 42.3136 7.37955 43.1205C8.18636 43.95 9.17045 44.5886 10.2545 44.9886C11.1364 45.3318 12.4591 45.7386 14.8977 45.85C17.5341 45.9705 18.3227 45.9955 25 45.9955C31.6773 45.9955 32.4659 45.9705 35.1023 45.85C37.5409 45.7386 38.8636 45.3318 39.7455 44.9886C40.9114 44.5341 41.7455 43.9955 42.6205 43.1205C43.45 42.3136 44.0886 41.3295 44.4886 40.2455C44.8318 39.3636 45.2386 38.0409 45.35 35.6023C45.4705 32.9659 45.4955 32.175 45.4955 25.5C45.4955 18.825 45.4705 18.0341 45.35 15.3977C45.2386 12.9591 44.8318 11.6364 44.4886 10.7545C44.0341 9.58864 43.4955 8.75455 42.6205 7.87955C41.8135 7.05016 40.8311 6.41184 39.7455 6.01136C38.8636 5.66818 37.5409 5.26136 35.1023 5.15V5.15ZM21.8068 33.2068C23.5901 33.9492 25.5759 34.0494 27.4248 33.4903C29.2738 32.9312 30.8713 31.7475 31.9446 30.1415C33.0178 28.5354 33.5001 26.6065 33.3092 24.6843C33.1183 22.7621 32.2659 20.9658 30.8977 19.6023C30.0255 18.7306 28.9709 18.0632 27.8098 17.6481C26.6488 17.2329 25.4101 17.0804 24.1829 17.2014C22.9558 17.3224 21.7708 17.714 20.7132 18.348C19.6556 18.982 18.7517 19.8426 18.0666 20.8678C17.3815 21.8931 16.9322 23.0575 16.7512 24.2772C16.5701 25.4969 16.6617 26.7416 17.0194 27.9216C17.3771 29.1017 17.992 30.1877 18.8198 31.1016C19.6476 32.0155 20.6678 32.7345 21.8068 33.2068ZM15.9136 16.4136C17.1069 15.2204 18.5235 14.2739 20.0825 13.6281C21.6415 12.9823 23.3125 12.6499 25 12.6499C26.6875 12.6499 28.3585 12.9823 29.9175 13.6281C31.4765 14.2739 32.8931 15.2204 34.0864 16.4136C35.2796 17.6069 36.2261 19.0235 36.8719 20.5825C37.5177 22.1415 37.8501 23.8125 37.8501 25.5C37.8501 27.1875 37.5177 28.8585 36.8719 30.4175C36.2261 31.9765 35.2796 33.3931 34.0864 34.5864C31.6765 36.9962 28.408 38.3501 25 38.3501C21.592 38.3501 18.3235 36.9962 15.9136 34.5864C13.5038 32.1765 12.1499 28.908 12.1499 25.5C12.1499 22.092 13.5038 18.8235 15.9136 16.4136V16.4136ZM40.7 14.5636C40.9957 14.2847 41.2324 13.9493 41.3961 13.5772C41.5599 13.2052 41.6473 12.804 41.6532 12.3976C41.6591 11.9911 41.5835 11.5876 41.4306 11.2109C41.2778 10.8343 41.051 10.4921 40.7635 10.2046C40.4761 9.9172 40.1339 9.69036 39.7573 9.53754C39.3806 9.38472 38.9771 9.30904 38.5706 9.31496C38.1642 9.32089 37.763 9.4083 37.391 9.57204C37.0189 9.73577 36.6835 9.97249 36.4045 10.2682C35.8621 10.8432 35.5651 11.6071 35.5766 12.3976C35.5881 13.188 35.9073 13.9429 36.4663 14.5019C37.0253 15.0609 37.7801 15.3801 38.5706 15.3916C39.3611 15.4031 40.1249 15.1061 40.7 14.5636V14.5636Z" fill="black"/>
</g>
<defs>
<clipPath id="clip0_650_134">
<rect width="50" height="50" fill="white" transform="translate(0 0.5)"/>
</clipPath>
</defs>
</svg>
