<svg width="50" height="51" viewBox="0 0 50 51" fill="none" xmlns="http://www.w3.org/2000/svg">
<g clip-path="url(#clip0_650_129)">
<path d="M25 0.5C11.1942 0.5 0 11.6942 0 25.5C0 39.3058 11.1942 50.5 25 50.5C38.8058 50.5 50 39.3058 50 25.5C50 11.6942 38.8058 0.5 25 0.5ZM37.0145 19.3449C37.0312 19.6071 37.0312 19.8806 37.0312 20.1484C37.0312 28.3404 30.7924 37.7768 19.3917 37.7768C15.8761 37.7768 12.6172 36.7556 9.87165 34.9978C10.3739 35.0536 10.8538 35.0759 11.3672 35.0759C14.269 35.0759 16.9364 34.0938 19.0625 32.4308C16.3393 32.375 14.0513 30.5893 13.2701 28.1339C14.2243 28.2734 15.0837 28.2734 16.0658 28.0223C14.6637 27.7374 13.4033 26.9759 12.499 25.8671C11.5946 24.7583 11.102 23.3706 11.1049 21.9397V21.8616C11.9252 22.3248 12.8906 22.6094 13.9007 22.6484C13.0516 22.0826 12.3552 21.3159 11.8734 20.4165C11.3915 19.517 11.1391 18.5126 11.1384 17.4922C11.1384 16.3371 11.4397 15.2824 11.981 14.3672C13.5374 16.2831 15.4795 17.8501 17.6812 18.9663C19.8828 20.0825 22.2947 20.723 24.76 20.846C23.8839 16.6328 27.0313 13.2232 30.8147 13.2232C32.6004 13.2232 34.2076 13.971 35.3404 15.1763C36.7411 14.9141 38.0804 14.3895 39.2746 13.6864C38.8114 15.1205 37.8404 16.3315 36.5513 17.096C37.8013 16.9621 39.0067 16.6161 40.1228 16.1306C39.2801 17.3694 38.2254 18.4688 37.0145 19.3449V19.3449Z" fill="black"/>
</g>
<defs>
<clipPath id="clip0_650_129">
<rect width="50" height="50" fill="white" transform="translate(0 0.5)"/>
</clipPath>
</defs>
</svg>
